<svg width="86" height="86" viewBox="0 0 86 86" fill="none" xmlns="http://www.w3.org/2000/svg">
<path fill-rule="evenodd" clip-rule="evenodd" d="M43 7.44458C33.1816 7.44458 25.2222 15.404 25.2222 25.2224C25.2222 35.0408 33.1816 43.0001 43 43.0001C52.8184 43.0001 60.7778 35.0408 60.7778 25.2224C60.7778 15.404 52.8184 7.44458 43 7.44458ZM32.3333 25.2224C32.3333 19.3313 37.109 14.5557 43 14.5557C48.891 14.5557 53.6667 19.3313 53.6667 25.2224C53.6667 31.1134 48.891 35.889 43 35.889C37.109 35.889 32.3333 31.1134 32.3333 25.2224Z" fill="#00207F"/>
<path d="M28.7778 50.1113C24.0628 50.1113 19.541 51.9843 16.207 55.3182C12.873 58.6522 11 63.1741 11 67.889V75.0001C11 76.9638 12.5919 78.5557 14.5556 78.5557C16.5192 78.5557 18.1111 76.9638 18.1111 75.0001V67.889C18.1111 65.0601 19.2349 62.3469 21.2353 60.3466C23.2357 58.3462 25.9488 57.2224 28.7778 57.2224H57.2222C60.0512 57.2224 62.7643 58.3462 64.7647 60.3466C66.7651 62.3469 67.8889 65.0601 67.8889 67.889V75.0001C67.8889 76.9638 69.4808 78.5557 71.4444 78.5557C73.4081 78.5557 75 76.9638 75 75.0001V67.889C75 63.1741 73.127 58.6522 69.793 55.3182C66.459 51.9843 61.9372 50.1113 57.2222 50.1113H28.7778Z" fill="#00207F"/>
</svg>
